<svg width="314" height="314" viewBox="0 0 314 314" fill="none" xmlns="http://www.w3.org/2000/svg">
<path fill-rule="evenodd" clip-rule="evenodd" d="M157 0.681396C70.6673 0.681427 0.681152 70.6676 0.681152 157V313.319C59.4709 313.319 110.681 280.865 137.372 232.895C100.93 224.194 73.8352 191.416 73.8352 152.309V148.808C73.8352 104.986 109.361 69.4602 153.184 69.4602H156.685L156.684 152.309C156.684 106.553 193.776 69.4602 239.533 69.4602L239.533 152.309C239.533 197.96 202.611 234.987 157 235.157L157 313.319H163.605C246.289 313.319 313.318 246.289 313.318 163.605V157C313.318 70.6676 243.332 0.681335 157 0.681396Z" fill="black"/>
</svg>
